<svg width="53" height="40" viewBox="0 0 53 40" fill="none" xmlns="http://www.w3.org/2000/svg">
<path d="M39.9775 20C39.9775 30.9344 31.0739 39.8 20.0888 39.8C9.10367 39.8 0.2 30.9344 0.2 20C0.2 9.0656 9.10367 0.2 20.0888 0.2C31.0739 0.2 39.9775 9.0656 39.9775 20Z" fill="#F4F7FA" stroke="black" stroke-width="0.4"/>
<path d="M36.5582 20C36.5582 29.0543 29.1855 36.3958 20.0888 36.3958C10.9922 36.3958 3.61943 29.0543 3.61943 20C3.61943 10.9458 10.9922 3.6043 20.0888 3.6043C29.1855 3.6043 36.5582 10.9458 36.5582 20Z" stroke="black" stroke-opacity="0.3" stroke-width="0.4"/>
<path d="M52.7998 20C52.7998 30.9344 43.8961 39.8 32.911 39.8C21.9259 39.8 13.0223 30.9344 13.0223 20C13.0223 9.0656 21.9259 0.2 32.911 0.2C43.8961 0.2 52.7998 9.0656 52.7998 20Z" fill="#F4F7FA" stroke="black" stroke-width="0.4"/>
<path d="M49.8084 20C49.8084 29.0543 42.4356 36.3958 33.339 36.3958C24.2423 36.3958 16.8696 29.0543 16.8696 20C16.8696 10.9458 24.2423 3.6043 33.339 3.6043C42.4356 3.6043 49.8084 10.9458 49.8084 20Z" stroke="black" stroke-width="0.4"/>
<path d="M31.7753 30.9568V28.5338C31.2607 28.5266 30.7746 28.4266 30.3172 28.2336C29.8597 28.0334 29.463 27.7654 29.1271 27.4295C28.7912 27.0864 28.5231 26.6861 28.323 26.2287C28.13 25.7712 28.0335 25.2816 28.0335 24.7598V24.1487L29.4166 23.9236V24.7598C29.4166 25.0958 29.4773 25.4103 29.5989 25.7033C29.7204 25.9964 29.8883 26.2537 30.1028 26.4753C30.3172 26.6968 30.5674 26.8755 30.8533 27.0113C31.1392 27.14 31.4465 27.2115 31.7753 27.2258V20.9859C31.3036 20.8143 30.8425 20.6285 30.3922 20.4284C29.9491 20.2211 29.5524 19.9602 29.2022 19.6457C28.8519 19.3312 28.5696 18.9452 28.3552 18.4878C28.1407 18.0304 28.0335 17.4657 28.0335 16.7938V16.5043C28.0335 15.9897 28.13 15.5073 28.323 15.057C28.5231 14.5995 28.7912 14.1992 29.1271 13.8562C29.463 13.5131 29.8597 13.2415 30.3172 13.0413C30.7746 12.8412 31.2607 12.7376 31.7753 12.7304V10.7577H32.8689V12.7304C33.3764 12.7376 33.8553 12.8448 34.3056 13.052C34.7559 13.2522 35.149 13.5238 35.4849 13.8669C35.8208 14.2028 36.0853 14.5995 36.2783 15.057C36.4784 15.5073 36.5785 15.9897 36.5785 16.5043V16.901L35.1954 17.1262V16.5043C35.1954 16.1756 35.1347 15.8646 35.0132 15.5716C34.8917 15.2785 34.7273 15.0248 34.52 14.8104C34.3127 14.5888 34.0661 14.4101 33.7802 14.2743C33.4943 14.1385 33.1905 14.0634 32.8689 14.0491V19.9995C33.3335 20.1782 33.7945 20.3748 34.2519 20.5892C34.7094 20.8036 35.1168 21.0717 35.4742 21.3933C35.8387 21.7149 36.1318 22.1116 36.3533 22.5834C36.5749 23.048 36.6857 23.6198 36.6857 24.2988V24.7598C36.6857 25.2816 36.5856 25.7712 36.3855 26.2287C36.1925 26.6861 35.9245 27.0864 35.5814 27.4295C35.2383 27.7725 34.838 28.0442 34.3806 28.2443C33.9232 28.4373 33.4335 28.5338 32.9118 28.5338H32.8689V30.9568H31.7753ZM35.3026 24.2988C35.3026 23.8914 35.2383 23.5376 35.1097 23.2374C34.981 22.93 34.8059 22.6656 34.5843 22.444C34.3699 22.2153 34.1126 22.0187 33.8124 21.8543C33.5193 21.6899 33.2048 21.5398 32.8689 21.404V27.2258C33.2048 27.2258 33.5193 27.1614 33.8124 27.0328C34.1126 26.9041 34.3699 26.729 34.5843 26.5074C34.8059 26.2787 34.981 26.0178 35.1097 25.7248C35.2383 25.4246 35.3026 25.1029 35.3026 24.7598V24.2988ZM29.4166 16.7938C29.4166 17.1726 29.4773 17.505 29.5989 17.7909C29.7204 18.0697 29.8883 18.3163 30.1028 18.5307C30.3172 18.7451 30.5674 18.9345 30.8533 19.0989C31.1392 19.2633 31.4465 19.417 31.7753 19.5599V14.0491C31.4465 14.0634 31.1392 14.1385 30.8533 14.2743C30.5674 14.4101 30.3172 14.5888 30.1028 14.8104C29.8883 15.0248 29.7204 15.2785 29.5989 15.5716C29.4773 15.8646 29.4166 16.1756 29.4166 16.5043V16.7938Z" fill="url(#paint0_linear_0_246)"/>
<defs>
<linearGradient id="paint0_linear_0_246" x1="33.3391" y1="15.3193" x2="33.3391" y2="24.681" gradientUnits="userSpaceOnUse">
<stop stop-color="#4614E8"/>
<stop offset="1" stop-color="#BCA7FF"/>
</linearGradient>
</defs>
</svg>
