<svg width="44" height="42" viewBox="0 0 44 42" fill="none" xmlns="http://www.w3.org/2000/svg">
<mask id="path-1-inside-1_19_2" fill="white">
<path d="M40 22C40 33.0457 31.0457 42 20 42C8.95432 42 1.52588e-05 33.0457 1.52588e-05 22C1.52588e-05 10.9543 8.95432 2 20 2C31.0457 2 40 10.9543 40 22Z"/>
</mask>
<path d="M40 22C40 33.0457 31.0457 42 20 42C8.95432 42 1.52588e-05 33.0457 1.52588e-05 22C1.52588e-05 10.9543 8.95432 2 20 2C31.0457 2 40 10.9543 40 22Z" fill="#F4F7FA"/>
<path d="M39.6 22C39.6 32.8248 30.8248 41.6 20 41.6V42.4C31.2666 42.4 40.4 33.2666 40.4 22H39.6ZM20 41.6C9.17523 41.6 0.400015 32.8248 0.400015 22H-0.399985C-0.399985 33.2666 8.73341 42.4 20 42.4V41.6ZM0.400015 22C0.400015 11.1752 9.17523 2.4 20 2.4V1.6C8.73341 1.6 -0.399985 10.7334 -0.399985 22H0.400015ZM20 2.4C30.8248 2.4 39.6 11.1752 39.6 22H40.4C40.4 10.7334 31.2666 1.6 20 1.6V2.4Z" fill="black" mask="url(#path-1-inside-1_19_2)"/>
<g clip-path="url(#clip0_19_2)">
<path d="M25.1994 24.7149L25.1995 24.715C25.6066 25.0199 25.6892 25.5969 25.3837 26.0026L25.3829 26.0036C25.203 26.246 24.9278 26.3723 24.6458 26.3723C24.4534 26.3723 24.2604 26.3126 24.0945 26.1881L24.0945 26.1881L19.6118 22.8261L19.6114 22.8258C19.38 22.6531 19.2435 22.3799 19.2435 22.0895V15.3653C19.2435 14.856 19.6549 14.4446 20.1642 14.4446C20.6735 14.4446 21.0849 14.856 21.0849 15.3653V21.5291V21.6291L21.1649 21.6891L25.1994 24.7149Z" fill="#F4F7FA" stroke="black" stroke-width="0.4"/>
<path d="M5.8962 21.9998C5.8962 14.1321 12.2966 7.73174 20.1643 7.73174C28.032 7.73174 34.4324 14.1321 34.4324 21.9998C34.4324 29.8676 28.032 36.2679 20.1643 36.2679C12.2966 36.2679 5.8962 29.8676 5.8962 21.9998ZM7.73756 21.9998C7.73756 28.8512 13.3129 34.4265 20.1643 34.4265C27.0157 34.4265 32.591 28.8512 32.591 21.9998C32.591 15.1484 27.0168 9.5731 20.1643 9.5731C13.3129 9.5731 7.73756 15.1484 7.73756 21.9998Z" fill="#F4F7FA" stroke="black" stroke-width="0.4"/>
</g>
<mask id="path-6-inside-2_19_2" fill="white">
<path fill-rule="evenodd" clip-rule="evenodd" d="M26.7747 0.301807C31.9987 1.62433 35.9168 7.13561 35.9168 13.7336C35.9168 20.3315 31.9987 25.8428 26.7748 27.1654C27.7027 27.3632 28.6653 27.4673 29.6523 27.4673C37.2372 27.4673 43.386 21.3185 43.386 13.7336C43.386 6.14865 37.2372 -0.000144958 29.6523 -0.000144958C28.6653 -0.000144958 27.7027 0.103968 26.7747 0.301807Z"/>
</mask>
<path fill-rule="evenodd" clip-rule="evenodd" d="M26.7747 0.301807C31.9987 1.62433 35.9168 7.13561 35.9168 13.7336C35.9168 20.3315 31.9987 25.8428 26.7748 27.1654C27.7027 27.3632 28.6653 27.4673 29.6523 27.4673C37.2372 27.4673 43.386 21.3185 43.386 13.7336C43.386 6.14865 37.2372 -0.000144958 29.6523 -0.000144958C28.6653 -0.000144958 27.7027 0.103968 26.7747 0.301807Z" fill="#7247FF"/>
<path fill-rule="evenodd" clip-rule="evenodd" d="M26.7747 0.301807C31.9987 1.62433 35.9168 7.13561 35.9168 13.7336C35.9168 20.3315 31.9987 25.8428 26.7748 27.1654C27.7027 27.3632 28.6653 27.4673 29.6523 27.4673C37.2372 27.4673 43.386 21.3185 43.386 13.7336C43.386 6.14865 37.2372 -0.000144958 29.6523 -0.000144958C28.6653 -0.000144958 27.7027 0.103968 26.7747 0.301807Z" fill="url(#paint0_linear_19_2)"/>
<path d="M26.7747 0.301807L26.7121 0.00840187L26.7011 0.592632L26.7747 0.301807ZM26.7748 27.1654L26.7012 26.8745L26.7122 27.4588L26.7748 27.1654ZM26.7011 0.592632C31.7646 1.87453 35.6168 7.24256 35.6168 13.7336H36.2168C36.2168 7.02866 32.2328 1.37413 26.8483 0.0109825L26.7011 0.592632ZM35.6168 13.7336C35.6168 20.2246 31.7646 25.5926 26.7012 26.8745L26.8484 27.4562C32.2328 26.093 36.2168 20.4385 36.2168 13.7336H35.6168ZM29.6523 27.1673C28.6865 27.1673 27.7448 27.0654 26.8373 26.8719L26.7122 27.4588C27.6606 27.6609 28.6442 27.7673 29.6523 27.7673V27.1673ZM43.086 13.7336C43.086 21.1528 37.0715 27.1673 29.6523 27.1673V27.7673C37.4029 27.7673 43.686 21.4842 43.686 13.7336H43.086ZM29.6523 0.299854C37.0715 0.299854 43.086 6.31433 43.086 13.7336H43.686C43.686 5.98296 37.4029 -0.300144 29.6523 -0.300144V0.299854ZM26.8372 0.595213C27.7448 0.40173 28.6864 0.299854 29.6523 0.299854V-0.300144C28.6441 -0.300144 27.6605 -0.193794 26.7121 0.00840187L26.8372 0.595213Z" fill="black" mask="url(#path-6-inside-2_19_2)"/>
<defs>
<linearGradient id="paint0_linear_19_2" x1="35.0803" y1="27.4673" x2="35.0803" y2="-0.000144958" gradientUnits="userSpaceOnUse">
<stop stop-color="#4614E8"/>
<stop offset="1" stop-color="#BCA7FF"/>
</linearGradient>
<clipPath id="clip0_19_2">
<rect x="5.6962" y="7.53174" width="28.9362" height="28.9362" fill="white"/>
</clipPath>
</defs>
</svg>
