<svg width="40" height="40" viewBox="0 0 40 40" fill="none" xmlns="http://www.w3.org/2000/svg">
<path d="M18.3786 9.21855C18.3786 14.1979 14.3106 18.2371 9.28928 18.2371C4.26797 18.2371 0.2 14.1979 0.2 9.21855C0.2 4.23918 4.26797 0.2 9.28928 0.2C14.3106 0.2 18.3786 4.23918 18.3786 9.21855Z" fill="#F1F5F8" stroke="black" stroke-width="0.4"/>
<path d="M18.3786 30.7815C18.3786 35.7609 14.3106 39.8001 9.28928 39.8001C4.26797 39.8001 0.2 35.7609 0.2 30.7815C0.2 25.8022 4.26797 21.763 9.28928 21.763C14.3106 21.763 18.3786 25.8022 18.3786 30.7815Z" fill="#F1F5F8" stroke="black" stroke-width="0.4"/>
<path d="M39.7999 9.21855C39.7999 14.1979 35.732 18.2371 30.7107 18.2371C25.6894 18.2371 21.6214 14.1979 21.6214 9.21855C21.6214 4.23918 25.6894 0.2 30.7107 0.2C35.732 0.2 39.7999 4.23918 39.7999 9.21855Z" fill="#F1F5F8" stroke="black" stroke-width="0.4"/>
<ellipse cx="30.7107" cy="30.7815" rx="9.28928" ry="9.21855" fill="url(#paint0_linear_0_252)"/>
<path fill-rule="evenodd" clip-rule="evenodd" d="M9.26587 2.6377C9.26586 2.6377 9.26585 2.6377 9.26584 2.6377C5.63364 2.6377 2.66956 5.56279 2.66956 9.19517C2.66956 12.8276 5.63364 15.7526 9.26584 15.7526C9.26585 15.7526 9.26586 15.7526 9.26587 15.7526V12.7526C9.26586 12.7526 9.26585 12.7526 9.26584 12.7526C7.26884 12.7526 5.66956 11.1491 5.66956 9.19517C5.66956 7.24122 7.26884 5.6377 9.26584 5.6377C9.26585 5.6377 9.26586 5.6377 9.26587 5.6377V2.6377Z" fill="#F1F5F8"/>
<path d="M9.26587 2.6377H9.46587V2.4377H9.26587V2.6377ZM9.26587 15.7526V15.9526H9.46587V15.7526H9.26587ZM9.26587 12.7526H9.46587V12.5526H9.26587V12.7526ZM9.26587 5.6377V5.8377H9.46587V5.6377H9.26587ZM9.26584 2.8377C9.26584 2.8377 9.26584 2.8377 9.26584 2.8377C9.26584 2.8377 9.26584 2.8377 9.26584 2.8377H9.26584C9.26584 2.8377 9.26584 2.8377 9.26584 2.8377H9.26584C9.26584 2.8377 9.26584 2.8377 9.26584 2.8377H9.26584C9.26584 2.8377 9.26584 2.8377 9.26584 2.8377H9.26584C9.26584 2.8377 9.26584 2.8377 9.26584 2.8377H9.26584C9.26584 2.8377 9.26584 2.8377 9.26584 2.8377H9.26584C9.26584 2.8377 9.26584 2.8377 9.26584 2.8377H9.26584C9.26584 2.8377 9.26584 2.8377 9.26584 2.8377H9.26584C9.26585 2.8377 9.26585 2.8377 9.26585 2.8377H9.26585C9.26585 2.8377 9.26585 2.8377 9.26585 2.8377C9.26585 2.8377 9.26585 2.8377 9.26585 2.8377C9.26585 2.8377 9.26585 2.8377 9.26585 2.8377C9.26585 2.8377 9.26585 2.8377 9.26585 2.8377H9.26585C9.26585 2.8377 9.26585 2.8377 9.26585 2.8377H9.26585C9.26585 2.8377 9.26585 2.8377 9.26585 2.8377C9.26585 2.8377 9.26585 2.8377 9.26585 2.8377C9.26585 2.8377 9.26585 2.8377 9.26585 2.8377C9.26585 2.8377 9.26585 2.8377 9.26585 2.8377H9.26585C9.26585 2.8377 9.26585 2.8377 9.26585 2.8377H9.26585C9.26585 2.8377 9.26585 2.8377 9.26585 2.8377C9.26585 2.8377 9.26585 2.8377 9.26585 2.8377H9.26585C9.26585 2.8377 9.26585 2.8377 9.26585 2.8377H9.26585C9.26586 2.8377 9.26586 2.8377 9.26586 2.8377C9.26586 2.8377 9.26586 2.8377 9.26586 2.8377C9.26586 2.8377 9.26586 2.8377 9.26586 2.8377C9.26586 2.8377 9.26586 2.8377 9.26586 2.8377H9.26586C9.26586 2.8377 9.26586 2.8377 9.26586 2.8377H9.26586C9.26586 2.8377 9.26586 2.8377 9.26586 2.8377C9.26586 2.8377 9.26586 2.8377 9.26586 2.8377C9.26586 2.8377 9.26586 2.8377 9.26586 2.8377C9.26586 2.8377 9.26586 2.8377 9.26586 2.8377H9.26586C9.26586 2.8377 9.26586 2.8377 9.26586 2.8377H9.26586C9.26586 2.8377 9.26586 2.8377 9.26586 2.8377H9.26586C9.26586 2.8377 9.26586 2.8377 9.26586 2.8377H9.26586C9.26586 2.8377 9.26586 2.8377 9.26586 2.8377H9.26586C9.26586 2.8377 9.26586 2.8377 9.26586 2.8377H9.26587C9.26587 2.8377 9.26587 2.8377 9.26587 2.8377H9.26587C9.26587 2.8377 9.26587 2.8377 9.26587 2.8377H9.26587C9.26587 2.8377 9.26587 2.8377 9.26587 2.8377H9.26587C9.26587 2.8377 9.26587 2.8377 9.26587 2.8377C9.26587 2.8377 9.26587 2.8377 9.26587 2.8377V2.4377C9.26587 2.4377 9.26587 2.4377 9.26587 2.4377C9.26587 2.4377 9.26587 2.4377 9.26587 2.4377H9.26587C9.26587 2.4377 9.26587 2.4377 9.26587 2.4377H9.26587C9.26587 2.4377 9.26587 2.4377 9.26587 2.4377H9.26587C9.26587 2.4377 9.26587 2.4377 9.26587 2.4377H9.26586C9.26586 2.4377 9.26586 2.4377 9.26586 2.4377H9.26586C9.26586 2.4377 9.26586 2.4377 9.26586 2.4377H9.26586C9.26586 2.4377 9.26586 2.4377 9.26586 2.4377H9.26586C9.26586 2.4377 9.26586 2.4377 9.26586 2.4377H9.26586C9.26586 2.4377 9.26586 2.4377 9.26586 2.4377H9.26586C9.26586 2.4377 9.26586 2.4377 9.26586 2.4377C9.26586 2.4377 9.26586 2.4377 9.26586 2.4377C9.26586 2.4377 9.26586 2.4377 9.26586 2.4377C9.26586 2.4377 9.26586 2.4377 9.26586 2.4377H9.26586C9.26586 2.4377 9.26586 2.4377 9.26586 2.4377H9.26586C9.26586 2.4377 9.26586 2.4377 9.26586 2.4377C9.26586 2.4377 9.26586 2.4377 9.26586 2.4377C9.26586 2.4377 9.26586 2.4377 9.26586 2.4377C9.26586 2.4377 9.26586 2.4377 9.26585 2.4377H9.26585C9.26585 2.4377 9.26585 2.4377 9.26585 2.4377H9.26585C9.26585 2.4377 9.26585 2.4377 9.26585 2.4377C9.26585 2.4377 9.26585 2.4377 9.26585 2.4377H9.26585C9.26585 2.4377 9.26585 2.4377 9.26585 2.4377H9.26585C9.26585 2.4377 9.26585 2.4377 9.26585 2.4377C9.26585 2.4377 9.26585 2.4377 9.26585 2.4377C9.26585 2.4377 9.26585 2.4377 9.26585 2.4377C9.26585 2.4377 9.26585 2.4377 9.26585 2.4377H9.26585C9.26585 2.4377 9.26585 2.4377 9.26585 2.4377H9.26585C9.26585 2.4377 9.26585 2.4377 9.26585 2.4377C9.26585 2.4377 9.26585 2.4377 9.26585 2.4377C9.26585 2.4377 9.26585 2.4377 9.26585 2.4377C9.26585 2.4377 9.26585 2.4377 9.26585 2.4377H9.26585C9.26585 2.4377 9.26585 2.4377 9.26584 2.4377H9.26584C9.26584 2.4377 9.26584 2.4377 9.26584 2.4377H9.26584C9.26584 2.4377 9.26584 2.4377 9.26584 2.4377H9.26584C9.26584 2.4377 9.26584 2.4377 9.26584 2.4377H9.26584C9.26584 2.4377 9.26584 2.4377 9.26584 2.4377H9.26584C9.26584 2.4377 9.26584 2.4377 9.26584 2.4377H9.26584C9.26584 2.4377 9.26584 2.4377 9.26584 2.4377H9.26584C9.26584 2.4377 9.26584 2.4377 9.26584 2.4377H9.26584C9.26584 2.4377 9.26584 2.4377 9.26584 2.4377C9.26584 2.4377 9.26584 2.4377 9.26584 2.4377V2.8377ZM2.86956 9.19517C2.86956 5.67478 5.74255 2.8377 9.26584 2.8377V2.4377C5.52473 2.4377 2.46956 5.45079 2.46956 9.19517H2.86956ZM9.26584 15.5526C5.74255 15.5526 2.86956 12.7156 2.86956 9.19517H2.46956C2.46956 12.9395 5.52473 15.9526 9.26584 15.9526V15.5526ZM9.26587 15.5526C9.26587 15.5526 9.26587 15.5526 9.26587 15.5526C9.26587 15.5526 9.26587 15.5526 9.26587 15.5526H9.26587C9.26587 15.5526 9.26587 15.5526 9.26587 15.5526H9.26587C9.26587 15.5526 9.26587 15.5526 9.26587 15.5526H9.26587C9.26587 15.5526 9.26587 15.5526 9.26587 15.5526H9.26586C9.26586 15.5526 9.26586 15.5526 9.26586 15.5526H9.26586C9.26586 15.5526 9.26586 15.5526 9.26586 15.5526H9.26586C9.26586 15.5526 9.26586 15.5526 9.26586 15.5526H9.26586C9.26586 15.5526 9.26586 15.5526 9.26586 15.5526H9.26586C9.26586 15.5526 9.26586 15.5526 9.26586 15.5526H9.26586C9.26586 15.5526 9.26586 15.5526 9.26586 15.5526C9.26586 15.5526 9.26586 15.5526 9.26586 15.5526C9.26586 15.5526 9.26586 15.5526 9.26586 15.5526C9.26586 15.5526 9.26586 15.5526 9.26586 15.5526H9.26586C9.26586 15.5526 9.26586 15.5526 9.26586 15.5526H9.26586C9.26586 15.5526 9.26586 15.5526 9.26586 15.5526C9.26586 15.5526 9.26586 15.5526 9.26586 15.5526C9.26586 15.5526 9.26586 15.5526 9.26586 15.5526C9.26586 15.5526 9.26586 15.5526 9.26585 15.5526H9.26585C9.26585 15.5526 9.26585 15.5526 9.26585 15.5526H9.26585C9.26585 15.5526 9.26585 15.5526 9.26585 15.5526C9.26585 15.5526 9.26585 15.5526 9.26585 15.5526H9.26585C9.26585 15.5526 9.26585 15.5526 9.26585 15.5526H9.26585C9.26585 15.5526 9.26585 15.5526 9.26585 15.5526C9.26585 15.5526 9.26585 15.5526 9.26585 15.5526C9.26585 15.5526 9.26585 15.5526 9.26585 15.5526C9.26585 15.5526 9.26585 15.5526 9.26585 15.5526H9.26585C9.26585 15.5526 9.26585 15.5526 9.26585 15.5526H9.26585C9.26585 15.5526 9.26585 15.5526 9.26585 15.5526C9.26585 15.5526 9.26585 15.5526 9.26585 15.5526C9.26585 15.5526 9.26585 15.5526 9.26585 15.5526C9.26585 15.5526 9.26585 15.5526 9.26585 15.5526H9.26585C9.26585 15.5526 9.26585 15.5526 9.26584 15.5526H9.26584C9.26584 15.5526 9.26584 15.5526 9.26584 15.5526H9.26584C9.26584 15.5526 9.26584 15.5526 9.26584 15.5526H9.26584C9.26584 15.5526 9.26584 15.5526 9.26584 15.5526H9.26584C9.26584 15.5526 9.26584 15.5526 9.26584 15.5526H9.26584C9.26584 15.5526 9.26584 15.5526 9.26584 15.5526H9.26584C9.26584 15.5526 9.26584 15.5526 9.26584 15.5526H9.26584C9.26584 15.5526 9.26584 15.5526 9.26584 15.5526H9.26584C9.26584 15.5526 9.26584 15.5526 9.26584 15.5526C9.26584 15.5526 9.26584 15.5526 9.26584 15.5526V15.9526C9.26584 15.9526 9.26584 15.9526 9.26584 15.9526C9.26584 15.9526 9.26584 15.9526 9.26584 15.9526H9.26584C9.26584 15.9526 9.26584 15.9526 9.26584 15.9526H9.26584C9.26584 15.9526 9.26584 15.9526 9.26584 15.9526H9.26584C9.26584 15.9526 9.26584 15.9526 9.26584 15.9526H9.26584C9.26584 15.9526 9.26584 15.9526 9.26584 15.9526H9.26584C9.26584 15.9526 9.26584 15.9526 9.26584 15.9526H9.26584C9.26584 15.9526 9.26584 15.9526 9.26584 15.9526H9.26584C9.26584 15.9526 9.26584 15.9526 9.26584 15.9526H9.26584C9.26585 15.9526 9.26585 15.9526 9.26585 15.9526H9.26585C9.26585 15.9526 9.26585 15.9526 9.26585 15.9526C9.26585 15.9526 9.26585 15.9526 9.26585 15.9526C9.26585 15.9526 9.26585 15.9526 9.26585 15.9526C9.26585 15.9526 9.26585 15.9526 9.26585 15.9526H9.26585C9.26585 15.9526 9.26585 15.9526 9.26585 15.9526H9.26585C9.26585 15.9526 9.26585 15.9526 9.26585 15.9526C9.26585 15.9526 9.26585 15.9526 9.26585 15.9526C9.26585 15.9526 9.26585 15.9526 9.26585 15.9526C9.26585 15.9526 9.26585 15.9526 9.26585 15.9526H9.26585C9.26585 15.9526 9.26585 15.9526 9.26585 15.9526H9.26585C9.26585 15.9526 9.26585 15.9526 9.26585 15.9526C9.26585 15.9526 9.26585 15.9526 9.26585 15.9526H9.26585C9.26585 15.9526 9.26585 15.9526 9.26585 15.9526H9.26585C9.26586 15.9526 9.26586 15.9526 9.26586 15.9526C9.26586 15.9526 9.26586 15.9526 9.26586 15.9526C9.26586 15.9526 9.26586 15.9526 9.26586 15.9526C9.26586 15.9526 9.26586 15.9526 9.26586 15.9526H9.26586C9.26586 15.9526 9.26586 15.9526 9.26586 15.9526H9.26586C9.26586 15.9526 9.26586 15.9526 9.26586 15.9526C9.26586 15.9526 9.26586 15.9526 9.26586 15.9526C9.26586 15.9526 9.26586 15.9526 9.26586 15.9526C9.26586 15.9526 9.26586 15.9526 9.26586 15.9526H9.26586C9.26586 15.9526 9.26586 15.9526 9.26586 15.9526H9.26586C9.26586 15.9526 9.26586 15.9526 9.26586 15.9526H9.26586C9.26586 15.9526 9.26586 15.9526 9.26586 15.9526H9.26586C9.26586 15.9526 9.26586 15.9526 9.26586 15.9526H9.26586C9.26586 15.9526 9.26586 15.9526 9.26586 15.9526H9.26587C9.26587 15.9526 9.26587 15.9526 9.26587 15.9526H9.26587C9.26587 15.9526 9.26587 15.9526 9.26587 15.9526H9.26587C9.26587 15.9526 9.26587 15.9526 9.26587 15.9526H9.26587C9.26587 15.9526 9.26587 15.9526 9.26587 15.9526C9.26587 15.9526 9.26587 15.9526 9.26587 15.9526V15.5526ZM9.46587 15.7526V12.7526H9.06587V15.7526H9.46587ZM9.26584 12.9526C9.26584 12.9526 9.26584 12.9526 9.26584 12.9526C9.26584 12.9526 9.26584 12.9526 9.26584 12.9526H9.26584C9.26584 12.9526 9.26584 12.9526 9.26584 12.9526H9.26584C9.26584 12.9526 9.26584 12.9526 9.26584 12.9526H9.26584C9.26584 12.9526 9.26584 12.9526 9.26584 12.9526H9.26584C9.26584 12.9526 9.26584 12.9526 9.26584 12.9526H9.26584C9.26584 12.9526 9.26584 12.9526 9.26584 12.9526H9.26584C9.26584 12.9526 9.26584 12.9526 9.26584 12.9526H9.26584C9.26584 12.9526 9.26584 12.9526 9.26584 12.9526H9.26584C9.26585 12.9526 9.26585 12.9526 9.26585 12.9526H9.26585C9.26585 12.9526 9.26585 12.9526 9.26585 12.9526C9.26585 12.9526 9.26585 12.9526 9.26585 12.9526C9.26585 12.9526 9.26585 12.9526 9.26585 12.9526C9.26585 12.9526 9.26585 12.9526 9.26585 12.9526H9.26585C9.26585 12.9526 9.26585 12.9526 9.26585 12.9526H9.26585C9.26585 12.9526 9.26585 12.9526 9.26585 12.9526C9.26585 12.9526 9.26585 12.9526 9.26585 12.9526C9.26585 12.9526 9.26585 12.9526 9.26585 12.9526C9.26585 12.9526 9.26585 12.9526 9.26585 12.9526H9.26585C9.26585 12.9526 9.26585 12.9526 9.26585 12.9526H9.26585C9.26585 12.9526 9.26585 12.9526 9.26585 12.9526C9.26585 12.9526 9.26585 12.9526 9.26585 12.9526H9.26585C9.26585 12.9526 9.26585 12.9526 9.26585 12.9526H9.26585C9.26586 12.9526 9.26586 12.9526 9.26586 12.9526C9.26586 12.9526 9.26586 12.9526 9.26586 12.9526C9.26586 12.9526 9.26586 12.9526 9.26586 12.9526C9.26586 12.9526 9.26586 12.9526 9.26586 12.9526H9.26586C9.26586 12.9526 9.26586 12.9526 9.26586 12.9526H9.26586C9.26586 12.9526 9.26586 12.9526 9.26586 12.9526C9.26586 12.9526 9.26586 12.9526 9.26586 12.9526C9.26586 12.9526 9.26586 12.9526 9.26586 12.9526C9.26586 12.9526 9.26586 12.9526 9.26586 12.9526H9.26586C9.26586 12.9526 9.26586 12.9526 9.26586 12.9526H9.26586C9.26586 12.9526 9.26586 12.9526 9.26586 12.9526H9.26586C9.26586 12.9526 9.26586 12.9526 9.26586 12.9526H9.26586C9.26586 12.9526 9.26586 12.9526 9.26586 12.9526H9.26586C9.26586 12.9526 9.26586 12.9526 9.26586 12.9526H9.26587C9.26587 12.9526 9.26587 12.9526 9.26587 12.9526H9.26587C9.26587 12.9526 9.26587 12.9526 9.26587 12.9526H9.26587C9.26587 12.9526 9.26587 12.9526 9.26587 12.9526H9.26587C9.26587 12.9526 9.26587 12.9526 9.26587 12.9526C9.26587 12.9526 9.26587 12.9526 9.26587 12.9526V12.5526C9.26587 12.5526 9.26587 12.5526 9.26587 12.5526C9.26587 12.5526 9.26587 12.5526 9.26587 12.5526H9.26587C9.26587 12.5526 9.26587 12.5526 9.26587 12.5526H9.26587C9.26587 12.5526 9.26587 12.5526 9.26587 12.5526H9.26587C9.26587 12.5526 9.26587 12.5526 9.26587 12.5526H9.26586C9.26586 12.5526 9.26586 12.5526 9.26586 12.5526H9.26586C9.26586 12.5526 9.26586 12.5526 9.26586 12.5526H9.26586C9.26586 12.5526 9.26586 12.5526 9.26586 12.5526H9.26586C9.26586 12.5526 9.26586 12.5526 9.26586 12.5526H9.26586C9.26586 12.5526 9.26586 12.5526 9.26586 12.5526H9.26586C9.26586 12.5526 9.26586 12.5526 9.26586 12.5526C9.26586 12.5526 9.26586 12.5526 9.26586 12.5526C9.26586 12.5526 9.26586 12.5526 9.26586 12.5526C9.26586 12.5526 9.26586 12.5526 9.26586 12.5526H9.26586C9.26586 12.5526 9.26586 12.5526 9.26586 12.5526H9.26586C9.26586 12.5526 9.26586 12.5526 9.26586 12.5526C9.26586 12.5526 9.26586 12.5526 9.26586 12.5526C9.26586 12.5526 9.26586 12.5526 9.26586 12.5526C9.26586 12.5526 9.26586 12.5526 9.26585 12.5526H9.26585C9.26585 12.5526 9.26585 12.5526 9.26585 12.5526H9.26585C9.26585 12.5526 9.26585 12.5526 9.26585 12.5526C9.26585 12.5526 9.26585 12.5526 9.26585 12.5526H9.26585C9.26585 12.5526 9.26585 12.5526 9.26585 12.5526H9.26585C9.26585 12.5526 9.26585 12.5526 9.26585 12.5526C9.26585 12.5526 9.26585 12.5526 9.26585 12.5526C9.26585 12.5526 9.26585 12.5526 9.26585 12.5526C9.26585 12.5526 9.26585 12.5526 9.26585 12.5526H9.26585C9.26585 12.5526 9.26585 12.5526 9.26585 12.5526H9.26585C9.26585 12.5526 9.26585 12.5526 9.26585 12.5526C9.26585 12.5526 9.26585 12.5526 9.26585 12.5526C9.26585 12.5526 9.26585 12.5526 9.26585 12.5526C9.26585 12.5526 9.26585 12.5526 9.26585 12.5526H9.26585C9.26585 12.5526 9.26585 12.5526 9.26584 12.5526H9.26584C9.26584 12.5526 9.26584 12.5526 9.26584 12.5526H9.26584C9.26584 12.5526 9.26584 12.5526 9.26584 12.5526H9.26584C9.26584 12.5526 9.26584 12.5526 9.26584 12.5526H9.26584C9.26584 12.5526 9.26584 12.5526 9.26584 12.5526H9.26584C9.26584 12.5526 9.26584 12.5526 9.26584 12.5526H9.26584C9.26584 12.5526 9.26584 12.5526 9.26584 12.5526H9.26584C9.26584 12.5526 9.26584 12.5526 9.26584 12.5526H9.26584C9.26584 12.5526 9.26584 12.5526 9.26584 12.5526C9.26584 12.5526 9.26584 12.5526 9.26584 12.5526V12.9526ZM5.46956 9.19517C5.46956 11.2608 7.15964 12.9526 9.26584 12.9526V12.5526C7.37803 12.5526 5.86956 11.0374 5.86956 9.19517H5.46956ZM9.26584 5.4377C7.15964 5.4377 5.46956 7.12951 5.46956 9.19517H5.86956C5.86956 7.35293 7.37803 5.8377 9.26584 5.8377V5.4377ZM9.26587 5.4377C9.26587 5.4377 9.26587 5.4377 9.26587 5.4377C9.26587 5.4377 9.26587 5.4377 9.26587 5.4377H9.26587C9.26587 5.4377 9.26587 5.4377 9.26587 5.4377H9.26587C9.26587 5.4377 9.26587 5.4377 9.26587 5.4377H9.26587C9.26587 5.4377 9.26587 5.4377 9.26587 5.4377H9.26586C9.26586 5.4377 9.26586 5.4377 9.26586 5.4377H9.26586C9.26586 5.4377 9.26586 5.4377 9.26586 5.4377H9.26586C9.26586 5.4377 9.26586 5.4377 9.26586 5.4377H9.26586C9.26586 5.4377 9.26586 5.4377 9.26586 5.4377H9.26586C9.26586 5.4377 9.26586 5.4377 9.26586 5.4377H9.26586C9.26586 5.4377 9.26586 5.4377 9.26586 5.4377C9.26586 5.4377 9.26586 5.4377 9.26586 5.4377C9.26586 5.4377 9.26586 5.4377 9.26586 5.4377C9.26586 5.4377 9.26586 5.4377 9.26586 5.4377H9.26586C9.26586 5.4377 9.26586 5.4377 9.26586 5.4377H9.26586C9.26586 5.4377 9.26586 5.4377 9.26586 5.4377C9.26586 5.4377 9.26586 5.4377 9.26586 5.4377C9.26586 5.4377 9.26586 5.4377 9.26586 5.4377C9.26586 5.4377 9.26586 5.4377 9.26585 5.4377H9.26585C9.26585 5.4377 9.26585 5.4377 9.26585 5.4377H9.26585C9.26585 5.4377 9.26585 5.4377 9.26585 5.4377C9.26585 5.4377 9.26585 5.4377 9.26585 5.4377H9.26585C9.26585 5.4377 9.26585 5.4377 9.26585 5.4377H9.26585C9.26585 5.4377 9.26585 5.4377 9.26585 5.4377C9.26585 5.4377 9.26585 5.4377 9.26585 5.4377C9.26585 5.4377 9.26585 5.4377 9.26585 5.4377C9.26585 5.4377 9.26585 5.4377 9.26585 5.4377H9.26585C9.26585 5.4377 9.26585 5.4377 9.26585 5.4377H9.26585C9.26585 5.4377 9.26585 5.4377 9.26585 5.4377C9.26585 5.4377 9.26585 5.4377 9.26585 5.4377C9.26585 5.4377 9.26585 5.4377 9.26585 5.4377C9.26585 5.4377 9.26585 5.4377 9.26585 5.4377H9.26585C9.26585 5.4377 9.26585 5.4377 9.26584 5.4377H9.26584C9.26584 5.4377 9.26584 5.4377 9.26584 5.4377H9.26584C9.26584 5.4377 9.26584 5.4377 9.26584 5.4377H9.26584C9.26584 5.4377 9.26584 5.4377 9.26584 5.4377H9.26584C9.26584 5.4377 9.26584 5.4377 9.26584 5.4377H9.26584C9.26584 5.4377 9.26584 5.4377 9.26584 5.4377H9.26584C9.26584 5.4377 9.26584 5.4377 9.26584 5.4377H9.26584C9.26584 5.4377 9.26584 5.4377 9.26584 5.4377H9.26584C9.26584 5.4377 9.26584 5.4377 9.26584 5.4377C9.26584 5.4377 9.26584 5.4377 9.26584 5.4377V5.8377C9.26584 5.8377 9.26584 5.8377 9.26584 5.8377C9.26584 5.8377 9.26584 5.8377 9.26584 5.8377H9.26584C9.26584 5.8377 9.26584 5.8377 9.26584 5.8377H9.26584C9.26584 5.8377 9.26584 5.8377 9.26584 5.8377H9.26584C9.26584 5.8377 9.26584 5.8377 9.26584 5.8377H9.26584C9.26584 5.8377 9.26584 5.8377 9.26584 5.8377H9.26584C9.26584 5.8377 9.26584 5.8377 9.26584 5.8377H9.26584C9.26584 5.8377 9.26584 5.8377 9.26584 5.8377H9.26584C9.26584 5.8377 9.26584 5.8377 9.26584 5.8377H9.26584C9.26585 5.8377 9.26585 5.8377 9.26585 5.8377H9.26585C9.26585 5.8377 9.26585 5.8377 9.26585 5.8377C9.26585 5.8377 9.26585 5.8377 9.26585 5.8377C9.26585 5.8377 9.26585 5.8377 9.26585 5.8377C9.26585 5.8377 9.26585 5.8377 9.26585 5.8377H9.26585C9.26585 5.8377 9.26585 5.8377 9.26585 5.8377H9.26585C9.26585 5.8377 9.26585 5.8377 9.26585 5.8377C9.26585 5.8377 9.26585 5.8377 9.26585 5.8377C9.26585 5.8377 9.26585 5.8377 9.26585 5.8377C9.26585 5.8377 9.26585 5.8377 9.26585 5.8377H9.26585C9.26585 5.8377 9.26585 5.8377 9.26585 5.8377H9.26585C9.26585 5.8377 9.26585 5.8377 9.26585 5.8377C9.26585 5.8377 9.26585 5.8377 9.26585 5.8377H9.26585C9.26585 5.8377 9.26585 5.8377 9.26585 5.8377H9.26585C9.26586 5.8377 9.26586 5.8377 9.26586 5.8377C9.26586 5.8377 9.26586 5.8377 9.26586 5.8377C9.26586 5.8377 9.26586 5.8377 9.26586 5.8377C9.26586 5.8377 9.26586 5.8377 9.26586 5.8377H9.26586C9.26586 5.8377 9.26586 5.8377 9.26586 5.8377H9.26586C9.26586 5.8377 9.26586 5.8377 9.26586 5.8377C9.26586 5.8377 9.26586 5.8377 9.26586 5.8377C9.26586 5.8377 9.26586 5.8377 9.26586 5.8377C9.26586 5.8377 9.26586 5.8377 9.26586 5.8377H9.26586C9.26586 5.8377 9.26586 5.8377 9.26586 5.8377H9.26586C9.26586 5.8377 9.26586 5.8377 9.26586 5.8377H9.26586C9.26586 5.8377 9.26586 5.8377 9.26586 5.8377H9.26586C9.26586 5.8377 9.26586 5.8377 9.26586 5.8377H9.26586C9.26586 5.8377 9.26586 5.8377 9.26586 5.8377H9.26587C9.26587 5.8377 9.26587 5.8377 9.26587 5.8377H9.26587C9.26587 5.8377 9.26587 5.8377 9.26587 5.8377H9.26587C9.26587 5.8377 9.26587 5.8377 9.26587 5.8377H9.26587C9.26587 5.8377 9.26587 5.8377 9.26587 5.8377C9.26587 5.8377 9.26587 5.8377 9.26587 5.8377V5.4377ZM9.46587 5.6377V2.6377H9.06587V5.6377H9.46587Z" fill="black"/>
<path fill-rule="evenodd" clip-rule="evenodd" d="M30.3461 2.6377C30.3461 2.6377 30.346 2.6377 30.346 2.6377C26.7138 2.6377 23.7498 5.56279 23.7498 9.19517C23.7498 12.8276 26.7138 15.7526 30.346 15.7526C30.346 15.7526 30.3461 15.7526 30.3461 15.7526V12.7526C30.3461 12.7526 30.346 12.7526 30.346 12.7526C28.349 12.7526 26.7498 11.1491 26.7498 9.19517C26.7498 7.24122 28.349 5.6377 30.346 5.6377C30.346 5.6377 30.3461 5.6377 30.3461 5.6377V2.6377Z" fill="#F1F5F8"/>
<path d="M30.3461 2.6377H30.5461V2.4377H30.3461V2.6377ZM30.3461 15.7526V15.9526H30.5461V15.7526H30.3461ZM30.3461 12.7526H30.5461V12.5526H30.3461V12.7526ZM30.3461 5.6377V5.8377H30.5461V5.6377H30.3461ZM30.346 2.8377C30.346 2.8377 30.346 2.8377 30.346 2.8377C30.346 2.8377 30.346 2.8377 30.346 2.8377H30.346C30.346 2.8377 30.346 2.8377 30.346 2.8377H30.346C30.346 2.8377 30.346 2.8377 30.346 2.8377H30.346C30.346 2.8377 30.346 2.8377 30.346 2.8377H30.346C30.346 2.8377 30.346 2.8377 30.346 2.8377H30.346C30.346 2.8377 30.346 2.8377 30.346 2.8377H30.346C30.346 2.8377 30.346 2.8377 30.346 2.8377H30.346C30.346 2.8377 30.346 2.8377 30.346 2.8377H30.346C30.346 2.8377 30.346 2.8377 30.346 2.8377H30.346C30.346 2.8377 30.346 2.8377 30.346 2.8377C30.346 2.8377 30.346 2.8377 30.346 2.8377C30.346 2.8377 30.346 2.8377 30.346 2.8377C30.346 2.8377 30.346 2.8377 30.346 2.8377H30.346C30.346 2.8377 30.346 2.8377 30.346 2.8377H30.346C30.346 2.8377 30.346 2.8377 30.346 2.8377C30.346 2.8377 30.346 2.8377 30.3461 2.8377C30.3461 2.8377 30.3461 2.8377 30.3461 2.8377C30.3461 2.8377 30.3461 2.8377 30.3461 2.8377H30.3461C30.3461 2.8377 30.3461 2.8377 30.3461 2.8377H30.3461C30.3461 2.8377 30.3461 2.8377 30.3461 2.8377C30.3461 2.8377 30.3461 2.8377 30.3461 2.8377H30.3461C30.3461 2.8377 30.3461 2.8377 30.3461 2.8377H30.3461C30.3461 2.8377 30.3461 2.8377 30.3461 2.8377C30.3461 2.8377 30.3461 2.8377 30.3461 2.8377C30.3461 2.8377 30.3461 2.8377 30.3461 2.8377C30.3461 2.8377 30.3461 2.8377 30.3461 2.8377H30.3461C30.3461 2.8377 30.3461 2.8377 30.3461 2.8377H30.3461C30.3461 2.8377 30.3461 2.8377 30.3461 2.8377C30.3461 2.8377 30.3461 2.8377 30.3461 2.8377C30.3461 2.8377 30.3461 2.8377 30.3461 2.8377C30.3461 2.8377 30.3461 2.8377 30.3461 2.8377H30.3461C30.3461 2.8377 30.3461 2.8377 30.3461 2.8377H30.3461C30.3461 2.8377 30.3461 2.8377 30.3461 2.8377H30.3461C30.3461 2.8377 30.3461 2.8377 30.3461 2.8377H30.3461C30.3461 2.8377 30.3461 2.8377 30.3461 2.8377H30.3461C30.3461 2.8377 30.3461 2.8377 30.3461 2.8377H30.3461C30.3461 2.8377 30.3461 2.8377 30.3461 2.8377H30.3461C30.3461 2.8377 30.3461 2.8377 30.3461 2.8377H30.3461C30.3461 2.8377 30.3461 2.8377 30.3461 2.8377H30.3461C30.3461 2.8377 30.3461 2.8377 30.3461 2.8377C30.3461 2.8377 30.3461 2.8377 30.3461 2.8377V2.4377C30.3461 2.4377 30.3461 2.4377 30.3461 2.4377C30.3461 2.4377 30.3461 2.4377 30.3461 2.4377H30.3461C30.3461 2.4377 30.3461 2.4377 30.3461 2.4377H30.3461C30.3461 2.4377 30.3461 2.4377 30.3461 2.4377H30.3461C30.3461 2.4377 30.3461 2.4377 30.3461 2.4377H30.3461C30.3461 2.4377 30.3461 2.4377 30.3461 2.4377H30.3461C30.3461 2.4377 30.3461 2.4377 30.3461 2.4377H30.3461C30.3461 2.4377 30.3461 2.4377 30.3461 2.4377H30.3461C30.3461 2.4377 30.3461 2.4377 30.3461 2.4377H30.3461C30.3461 2.4377 30.3461 2.4377 30.3461 2.4377H30.3461C30.3461 2.4377 30.3461 2.4377 30.3461 2.4377C30.3461 2.4377 30.3461 2.4377 30.3461 2.4377C30.3461 2.4377 30.3461 2.4377 30.3461 2.4377C30.3461 2.4377 30.3461 2.4377 30.3461 2.4377H30.3461C30.3461 2.4377 30.3461 2.4377 30.3461 2.4377H30.3461C30.3461 2.4377 30.3461 2.4377 30.3461 2.4377C30.3461 2.4377 30.3461 2.4377 30.3461 2.4377C30.3461 2.4377 30.3461 2.4377 30.3461 2.4377C30.3461 2.4377 30.3461 2.4377 30.3461 2.4377H30.3461C30.3461 2.4377 30.3461 2.4377 30.3461 2.4377H30.3461C30.3461 2.4377 30.3461 2.4377 30.3461 2.4377C30.3461 2.4377 30.3461 2.4377 30.3461 2.4377H30.3461C30.3461 2.4377 30.3461 2.4377 30.3461 2.4377H30.3461C30.3461 2.4377 30.3461 2.4377 30.3461 2.4377C30.3461 2.4377 30.3461 2.4377 30.3461 2.4377C30.346 2.4377 30.346 2.4377 30.346 2.4377C30.346 2.4377 30.346 2.4377 30.346 2.4377H30.346C30.346 2.4377 30.346 2.4377 30.346 2.4377H30.346C30.346 2.4377 30.346 2.4377 30.346 2.4377C30.346 2.4377 30.346 2.4377 30.346 2.4377C30.346 2.4377 30.346 2.4377 30.346 2.4377C30.346 2.4377 30.346 2.4377 30.346 2.4377H30.346C30.346 2.4377 30.346 2.4377 30.346 2.4377H30.346C30.346 2.4377 30.346 2.4377 30.346 2.4377H30.346C30.346 2.4377 30.346 2.4377 30.346 2.4377H30.346C30.346 2.4377 30.346 2.4377 30.346 2.4377H30.346C30.346 2.4377 30.346 2.4377 30.346 2.4377H30.346C30.346 2.4377 30.346 2.4377 30.346 2.4377H30.346C30.346 2.4377 30.346 2.4377 30.346 2.4377H30.346C30.346 2.4377 30.346 2.4377 30.346 2.4377H30.346C30.346 2.4377 30.346 2.4377 30.346 2.4377C30.346 2.4377 30.346 2.4377 30.346 2.4377V2.8377ZM23.9498 9.19517C23.9498 5.67478 26.8228 2.8377 30.346 2.8377V2.4377C26.6049 2.4377 23.5498 5.45079 23.5498 9.19517H23.9498ZM30.346 15.5526C26.8228 15.5526 23.9498 12.7156 23.9498 9.19517H23.5498C23.5498 12.9395 26.6049 15.9526 30.346 15.9526V15.5526ZM30.3461 15.5526C30.3461 15.5526 30.3461 15.5526 30.3461 15.5526C30.3461 15.5526 30.3461 15.5526 30.3461 15.5526H30.3461C30.3461 15.5526 30.3461 15.5526 30.3461 15.5526H30.3461C30.3461 15.5526 30.3461 15.5526 30.3461 15.5526H30.3461C30.3461 15.5526 30.3461 15.5526 30.3461 15.5526H30.3461C30.3461 15.5526 30.3461 15.5526 30.3461 15.5526H30.3461C30.3461 15.5526 30.3461 15.5526 30.3461 15.5526H30.3461C30.3461 15.5526 30.3461 15.5526 30.3461 15.5526H30.3461C30.3461 15.5526 30.3461 15.5526 30.3461 15.5526H30.3461C30.3461 15.5526 30.3461 15.5526 30.3461 15.5526H30.3461C30.3461 15.5526 30.3461 15.5526 30.3461 15.5526C30.3461 15.5526 30.3461 15.5526 30.3461 15.5526C30.3461 15.5526 30.3461 15.5526 30.3461 15.5526C30.3461 15.5526 30.3461 15.5526 30.3461 15.5526H30.3461C30.3461 15.5526 30.3461 15.5526 30.3461 15.5526H30.3461C30.3461 15.5526 30.3461 15.5526 30.3461 15.5526C30.3461 15.5526 30.3461 15.5526 30.3461 15.5526C30.3461 15.5526 30.3461 15.5526 30.3461 15.5526C30.3461 15.5526 30.3461 15.5526 30.3461 15.5526H30.3461C30.3461 15.5526 30.3461 15.5526 30.3461 15.5526H30.3461C30.3461 15.5526 30.3461 15.5526 30.3461 15.5526C30.3461 15.5526 30.3461 15.5526 30.3461 15.5526H30.3461C30.3461 15.5526 30.3461 15.5526 30.3461 15.5526H30.3461C30.3461 15.5526 30.3461 15.5526 30.3461 15.5526C30.3461 15.5526 30.3461 15.5526 30.3461 15.5526C30.346 15.5526 30.346 15.5526 30.346 15.5526C30.346 15.5526 30.346 15.5526 30.346 15.5526H30.346C30.346 15.5526 30.346 15.5526 30.346 15.5526H30.346C30.346 15.5526 30.346 15.5526 30.346 15.5526C30.346 15.5526 30.346 15.5526 30.346 15.5526C30.346 15.5526 30.346 15.5526 30.346 15.5526C30.346 15.5526 30.346 15.5526 30.346 15.5526H30.346C30.346 15.5526 30.346 15.5526 30.346 15.5526H30.346C30.346 15.5526 30.346 15.5526 30.346 15.5526H30.346C30.346 15.5526 30.346 15.5526 30.346 15.5526H30.346C30.346 15.5526 30.346 15.5526 30.346 15.5526H30.346C30.346 15.5526 30.346 15.5526 30.346 15.5526H30.346C30.346 15.5526 30.346 15.5526 30.346 15.5526H30.346C30.346 15.5526 30.346 15.5526 30.346 15.5526H30.346C30.346 15.5526 30.346 15.5526 30.346 15.5526H30.346C30.346 15.5526 30.346 15.5526 30.346 15.5526C30.346 15.5526 30.346 15.5526 30.346 15.5526V15.9526C30.346 15.9526 30.346 15.9526 30.346 15.9526C30.346 15.9526 30.346 15.9526 30.346 15.9526H30.346C30.346 15.9526 30.346 15.9526 30.346 15.9526H30.346C30.346 15.9526 30.346 15.9526 30.346 15.9526H30.346C30.346 15.9526 30.346 15.9526 30.346 15.9526H30.346C30.346 15.9526 30.346 15.9526 30.346 15.9526H30.346C30.346 15.9526 30.346 15.9526 30.346 15.9526H30.346C30.346 15.9526 30.346 15.9526 30.346 15.9526H30.346C30.346 15.9526 30.346 15.9526 30.346 15.9526H30.346C30.346 15.9526 30.346 15.9526 30.346 15.9526H30.346C30.346 15.9526 30.346 15.9526 30.346 15.9526C30.346 15.9526 30.346 15.9526 30.346 15.9526C30.346 15.9526 30.346 15.9526 30.346 15.9526C30.346 15.9526 30.346 15.9526 30.346 15.9526H30.346C30.346 15.9526 30.346 15.9526 30.346 15.9526H30.346C30.346 15.9526 30.346 15.9526 30.346 15.9526C30.346 15.9526 30.346 15.9526 30.3461 15.9526C30.3461 15.9526 30.3461 15.9526 30.3461 15.9526C30.3461 15.9526 30.3461 15.9526 30.3461 15.9526H30.3461C30.3461 15.9526 30.3461 15.9526 30.3461 15.9526H30.3461C30.3461 15.9526 30.3461 15.9526 30.3461 15.9526C30.3461 15.9526 30.3461 15.9526 30.3461 15.9526H30.3461C30.3461 15.9526 30.3461 15.9526 30.3461 15.9526H30.3461C30.3461 15.9526 30.3461 15.9526 30.3461 15.9526C30.3461 15.9526 30.3461 15.9526 30.3461 15.9526C30.3461 15.9526 30.3461 15.9526 30.3461 15.9526C30.3461 15.9526 30.3461 15.9526 30.3461 15.9526H30.3461C30.3461 15.9526 30.3461 15.9526 30.3461 15.9526H30.3461C30.3461 15.9526 30.3461 15.9526 30.3461 15.9526C30.3461 15.9526 30.3461 15.9526 30.3461 15.9526C30.3461 15.9526 30.3461 15.9526 30.3461 15.9526C30.3461 15.9526 30.3461 15.9526 30.3461 15.9526H30.3461C30.3461 15.9526 30.3461 15.9526 30.3461 15.9526H30.3461C30.3461 15.9526 30.3461 15.9526 30.3461 15.9526H30.3461C30.3461 15.9526 30.3461 15.9526 30.3461 15.9526H30.3461C30.3461 15.9526 30.3461 15.9526 30.3461 15.9526H30.3461C30.3461 15.9526 30.3461 15.9526 30.3461 15.9526H30.3461C30.3461 15.9526 30.3461 15.9526 30.3461 15.9526H30.3461C30.3461 15.9526 30.3461 15.9526 30.3461 15.9526H30.3461C30.3461 15.9526 30.3461 15.9526 30.3461 15.9526H30.3461C30.3461 15.9526 30.3461 15.9526 30.3461 15.9526C30.3461 15.9526 30.3461 15.9526 30.3461 15.9526V15.5526ZM30.5461 15.7526V12.7526H30.1461V15.7526H30.5461ZM30.346 12.9526C30.346 12.9526 30.346 12.9526 30.346 12.9526C30.346 12.9526 30.346 12.9526 30.346 12.9526H30.346C30.346 12.9526 30.346 12.9526 30.346 12.9526H30.346C30.346 12.9526 30.346 12.9526 30.346 12.9526H30.346C30.346 12.9526 30.346 12.9526 30.346 12.9526H30.346C30.346 12.9526 30.346 12.9526 30.346 12.9526H30.346C30.346 12.9526 30.346 12.9526 30.346 12.9526H30.346C30.346 12.9526 30.346 12.9526 30.346 12.9526H30.346C30.346 12.9526 30.346 12.9526 30.346 12.9526H30.346C30.346 12.9526 30.346 12.9526 30.346 12.9526H30.346C30.346 12.9526 30.346 12.9526 30.346 12.9526C30.346 12.9526 30.346 12.9526 30.346 12.9526C30.346 12.9526 30.346 12.9526 30.346 12.9526C30.346 12.9526 30.346 12.9526 30.346 12.9526H30.346C30.346 12.9526 30.346 12.9526 30.346 12.9526H30.346C30.346 12.9526 30.346 12.9526 30.346 12.9526C30.346 12.9526 30.346 12.9526 30.3461 12.9526C30.3461 12.9526 30.3461 12.9526 30.3461 12.9526C30.3461 12.9526 30.3461 12.9526 30.3461 12.9526H30.3461C30.3461 12.9526 30.3461 12.9526 30.3461 12.9526H30.3461C30.3461 12.9526 30.3461 12.9526 30.3461 12.9526C30.3461 12.9526 30.3461 12.9526 30.3461 12.9526H30.3461C30.3461 12.9526 30.3461 12.9526 30.3461 12.9526H30.3461C30.3461 12.9526 30.3461 12.9526 30.3461 12.9526C30.3461 12.9526 30.3461 12.9526 30.3461 12.9526C30.3461 12.9526 30.3461 12.9526 30.3461 12.9526C30.3461 12.9526 30.3461 12.9526 30.3461 12.9526H30.3461C30.3461 12.9526 30.3461 12.9526 30.3461 12.9526H30.3461C30.3461 12.9526 30.3461 12.9526 30.3461 12.9526C30.3461 12.9526 30.3461 12.9526 30.3461 12.9526C30.3461 12.9526 30.3461 12.9526 30.3461 12.9526C30.3461 12.9526 30.3461 12.9526 30.3461 12.9526H30.3461C30.3461 12.9526 30.3461 12.9526 30.3461 12.9526H30.3461C30.3461 12.9526 30.3461 12.9526 30.3461 12.9526H30.3461C30.3461 12.9526 30.3461 12.9526 30.3461 12.9526H30.3461C30.3461 12.9526 30.3461 12.9526 30.3461 12.9526H30.3461C30.3461 12.9526 30.3461 12.9526 30.3461 12.9526H30.3461C30.3461 12.9526 30.3461 12.9526 30.3461 12.9526H30.3461C30.3461 12.9526 30.3461 12.9526 30.3461 12.9526H30.3461C30.3461 12.9526 30.3461 12.9526 30.3461 12.9526H30.3461C30.3461 12.9526 30.3461 12.9526 30.3461 12.9526C30.3461 12.9526 30.3461 12.9526 30.3461 12.9526V12.5526C30.3461 12.5526 30.3461 12.5526 30.3461 12.5526C30.3461 12.5526 30.3461 12.5526 30.3461 12.5526H30.3461C30.3461 12.5526 30.3461 12.5526 30.3461 12.5526H30.3461C30.3461 12.5526 30.3461 12.5526 30.3461 12.5526H30.3461C30.3461 12.5526 30.3461 12.5526 30.3461 12.5526H30.3461C30.3461 12.5526 30.3461 12.5526 30.3461 12.5526H30.3461C30.3461 12.5526 30.3461 12.5526 30.3461 12.5526H30.3461C30.3461 12.5526 30.3461 12.5526 30.3461 12.5526H30.3461C30.3461 12.5526 30.3461 12.5526 30.3461 12.5526H30.3461C30.3461 12.5526 30.3461 12.5526 30.3461 12.5526H30.3461C30.3461 12.5526 30.3461 12.5526 30.3461 12.5526C30.3461 12.5526 30.3461 12.5526 30.3461 12.5526C30.3461 12.5526 30.3461 12.5526 30.3461 12.5526C30.3461 12.5526 30.3461 12.5526 30.3461 12.5526H30.3461C30.3461 12.5526 30.3461 12.5526 30.3461 12.5526H30.3461C30.3461 12.5526 30.3461 12.5526 30.3461 12.5526C30.3461 12.5526 30.3461 12.5526 30.3461 12.5526C30.3461 12.5526 30.3461 12.5526 30.3461 12.5526C30.3461 12.5526 30.3461 12.5526 30.3461 12.5526H30.3461C30.3461 12.5526 30.3461 12.5526 30.3461 12.5526H30.3461C30.3461 12.5526 30.3461 12.5526 30.3461 12.5526C30.3461 12.5526 30.3461 12.5526 30.3461 12.5526H30.3461C30.3461 12.5526 30.3461 12.5526 30.3461 12.5526H30.3461C30.3461 12.5526 30.3461 12.5526 30.3461 12.5526C30.3461 12.5526 30.3461 12.5526 30.3461 12.5526C30.346 12.5526 30.346 12.5526 30.346 12.5526C30.346 12.5526 30.346 12.5526 30.346 12.5526H30.346C30.346 12.5526 30.346 12.5526 30.346 12.5526H30.346C30.346 12.5526 30.346 12.5526 30.346 12.5526C30.346 12.5526 30.346 12.5526 30.346 12.5526C30.346 12.5526 30.346 12.5526 30.346 12.5526C30.346 12.5526 30.346 12.5526 30.346 12.5526H30.346C30.346 12.5526 30.346 12.5526 30.346 12.5526H30.346C30.346 12.5526 30.346 12.5526 30.346 12.5526H30.346C30.346 12.5526 30.346 12.5526 30.346 12.5526H30.346C30.346 12.5526 30.346 12.5526 30.346 12.5526H30.346C30.346 12.5526 30.346 12.5526 30.346 12.5526H30.346C30.346 12.5526 30.346 12.5526 30.346 12.5526H30.346C30.346 12.5526 30.346 12.5526 30.346 12.5526H30.346C30.346 12.5526 30.346 12.5526 30.346 12.5526H30.346C30.346 12.5526 30.346 12.5526 30.346 12.5526C30.346 12.5526 30.346 12.5526 30.346 12.5526V12.9526ZM26.5498 9.19517C26.5498 11.2608 28.2398 12.9526 30.346 12.9526V12.5526C28.4582 12.5526 26.9498 11.0374 26.9498 9.19517H26.5498ZM30.346 5.4377C28.2398 5.4377 26.5498 7.12951 26.5498 9.19517H26.9498C26.9498 7.35293 28.4582 5.8377 30.346 5.8377V5.4377ZM30.3461 5.4377C30.3461 5.4377 30.3461 5.4377 30.3461 5.4377C30.3461 5.4377 30.3461 5.4377 30.3461 5.4377H30.3461C30.3461 5.4377 30.3461 5.4377 30.3461 5.4377H30.3461C30.3461 5.4377 30.3461 5.4377 30.3461 5.4377H30.3461C30.3461 5.4377 30.3461 5.4377 30.3461 5.4377H30.3461C30.3461 5.4377 30.3461 5.4377 30.3461 5.4377H30.3461C30.3461 5.4377 30.3461 5.4377 30.3461 5.4377H30.3461C30.3461 5.4377 30.3461 5.4377 30.3461 5.4377H30.3461C30.3461 5.4377 30.3461 5.4377 30.3461 5.4377H30.3461C30.3461 5.4377 30.3461 5.4377 30.3461 5.4377H30.3461C30.3461 5.4377 30.3461 5.4377 30.3461 5.4377C30.3461 5.4377 30.3461 5.4377 30.3461 5.4377C30.3461 5.4377 30.3461 5.4377 30.3461 5.4377C30.3461 5.4377 30.3461 5.4377 30.3461 5.4377H30.3461C30.3461 5.4377 30.3461 5.4377 30.3461 5.4377H30.3461C30.3461 5.4377 30.3461 5.4377 30.3461 5.4377C30.3461 5.4377 30.3461 5.4377 30.3461 5.4377C30.3461 5.4377 30.3461 5.4377 30.3461 5.4377C30.3461 5.4377 30.3461 5.4377 30.3461 5.4377H30.3461C30.3461 5.4377 30.3461 5.4377 30.3461 5.4377H30.3461C30.3461 5.4377 30.3461 5.4377 30.3461 5.4377C30.3461 5.4377 30.3461 5.4377 30.3461 5.4377H30.3461C30.3461 5.4377 30.3461 5.4377 30.3461 5.4377H30.3461C30.3461 5.4377 30.3461 5.4377 30.3461 5.4377C30.3461 5.4377 30.3461 5.4377 30.3461 5.4377C30.346 5.4377 30.346 5.4377 30.346 5.4377C30.346 5.4377 30.346 5.4377 30.346 5.4377H30.346C30.346 5.4377 30.346 5.4377 30.346 5.4377H30.346C30.346 5.4377 30.346 5.4377 30.346 5.4377C30.346 5.4377 30.346 5.4377 30.346 5.4377C30.346 5.4377 30.346 5.4377 30.346 5.4377C30.346 5.4377 30.346 5.4377 30.346 5.4377H30.346C30.346 5.4377 30.346 5.4377 30.346 5.4377H30.346C30.346 5.4377 30.346 5.4377 30.346 5.4377H30.346C30.346 5.4377 30.346 5.4377 30.346 5.4377H30.346C30.346 5.4377 30.346 5.4377 30.346 5.4377H30.346C30.346 5.4377 30.346 5.4377 30.346 5.4377H30.346C30.346 5.4377 30.346 5.4377 30.346 5.4377H30.346C30.346 5.4377 30.346 5.4377 30.346 5.4377H30.346C30.346 5.4377 30.346 5.4377 30.346 5.4377H30.346C30.346 5.4377 30.346 5.4377 30.346 5.4377C30.346 5.4377 30.346 5.4377 30.346 5.4377V5.8377C30.346 5.8377 30.346 5.8377 30.346 5.8377C30.346 5.8377 30.346 5.8377 30.346 5.8377H30.346C30.346 5.8377 30.346 5.8377 30.346 5.8377H30.346C30.346 5.8377 30.346 5.8377 30.346 5.8377H30.346C30.346 5.8377 30.346 5.8377 30.346 5.8377H30.346C30.346 5.8377 30.346 5.8377 30.346 5.8377H30.346C30.346 5.8377 30.346 5.8377 30.346 5.8377H30.346C30.346 5.8377 30.346 5.8377 30.346 5.8377H30.346C30.346 5.8377 30.346 5.8377 30.346 5.8377H30.346C30.346 5.8377 30.346 5.8377 30.346 5.8377H30.346C30.346 5.8377 30.346 5.8377 30.346 5.8377C30.346 5.8377 30.346 5.8377 30.346 5.8377C30.346 5.8377 30.346 5.8377 30.346 5.8377C30.346 5.8377 30.346 5.8377 30.346 5.8377H30.346C30.346 5.8377 30.346 5.8377 30.346 5.8377H30.346C30.346 5.8377 30.346 5.8377 30.346 5.8377C30.346 5.8377 30.346 5.8377 30.3461 5.8377C30.3461 5.8377 30.3461 5.8377 30.3461 5.8377C30.3461 5.8377 30.3461 5.8377 30.3461 5.8377H30.3461C30.3461 5.8377 30.3461 5.8377 30.3461 5.8377H30.3461C30.3461 5.8377 30.3461 5.8377 30.3461 5.8377C30.3461 5.8377 30.3461 5.8377 30.3461 5.8377H30.3461C30.3461 5.8377 30.3461 5.8377 30.3461 5.8377H30.3461C30.3461 5.8377 30.3461 5.8377 30.3461 5.8377C30.3461 5.8377 30.3461 5.8377 30.3461 5.8377C30.3461 5.8377 30.3461 5.8377 30.3461 5.8377C30.3461 5.8377 30.3461 5.8377 30.3461 5.8377H30.3461C30.3461 5.8377 30.3461 5.8377 30.3461 5.8377H30.3461C30.3461 5.8377 30.3461 5.8377 30.3461 5.8377C30.3461 5.8377 30.3461 5.8377 30.3461 5.8377C30.3461 5.8377 30.3461 5.8377 30.3461 5.8377C30.3461 5.8377 30.3461 5.8377 30.3461 5.8377H30.3461C30.3461 5.8377 30.3461 5.8377 30.3461 5.8377H30.3461C30.3461 5.8377 30.3461 5.8377 30.3461 5.8377H30.3461C30.3461 5.8377 30.3461 5.8377 30.3461 5.8377H30.3461C30.3461 5.8377 30.3461 5.8377 30.3461 5.8377H30.3461C30.3461 5.8377 30.3461 5.8377 30.3461 5.8377H30.3461C30.3461 5.8377 30.3461 5.8377 30.3461 5.8377H30.3461C30.3461 5.8377 30.3461 5.8377 30.3461 5.8377H30.3461C30.3461 5.8377 30.3461 5.8377 30.3461 5.8377H30.3461C30.3461 5.8377 30.3461 5.8377 30.3461 5.8377C30.3461 5.8377 30.3461 5.8377 30.3461 5.8377V5.4377ZM30.5461 5.6377V2.6377H30.1461V5.6377H30.5461Z" fill="black"/>
<path fill-rule="evenodd" clip-rule="evenodd" d="M9.26587 24.0176C9.26586 24.0176 9.26585 24.0176 9.26584 24.0176C5.63364 24.0176 2.66956 26.9427 2.66956 30.5751C2.66956 34.2074 5.63364 37.1325 9.26584 37.1325C9.26585 37.1325 9.26586 37.1325 9.26587 37.1325V34.1325C9.26586 34.1325 9.26585 34.1325 9.26584 34.1325C7.26884 34.1325 5.66956 32.529 5.66956 30.5751C5.66956 28.6211 7.26884 27.0176 9.26584 27.0176C9.26585 27.0176 9.26586 27.0176 9.26587 27.0176V24.0176Z" fill="#F1F5F8"/>
<path d="M9.26587 24.0176H9.46587V23.8176H9.26587V24.0176ZM9.26587 37.1325V37.3325H9.46587V37.1325H9.26587ZM9.26587 34.1325H9.46587V33.9325H9.26587V34.1325ZM9.26587 27.0176V27.2176H9.46587V27.0176H9.26587ZM9.26584 24.2176C9.26584 24.2176 9.26584 24.2176 9.26584 24.2176C9.26584 24.2176 9.26584 24.2176 9.26584 24.2176H9.26584C9.26584 24.2176 9.26584 24.2176 9.26584 24.2176H9.26584C9.26584 24.2176 9.26584 24.2176 9.26584 24.2176H9.26584C9.26584 24.2176 9.26584 24.2176 9.26584 24.2176H9.26584C9.26584 24.2176 9.26584 24.2176 9.26584 24.2176H9.26584C9.26584 24.2176 9.26584 24.2176 9.26584 24.2176H9.26584C9.26584 24.2176 9.26584 24.2176 9.26584 24.2176H9.26584C9.26584 24.2176 9.26584 24.2176 9.26584 24.2176H9.26584C9.26585 24.2176 9.26585 24.2176 9.26585 24.2176H9.26585C9.26585 24.2176 9.26585 24.2176 9.26585 24.2176C9.26585 24.2176 9.26585 24.2176 9.26585 24.2176C9.26585 24.2176 9.26585 24.2176 9.26585 24.2176C9.26585 24.2176 9.26585 24.2176 9.26585 24.2176H9.26585C9.26585 24.2176 9.26585 24.2176 9.26585 24.2176H9.26585C9.26585 24.2176 9.26585 24.2176 9.26585 24.2176C9.26585 24.2176 9.26585 24.2176 9.26585 24.2176C9.26585 24.2176 9.26585 24.2176 9.26585 24.2176C9.26585 24.2176 9.26585 24.2176 9.26585 24.2176H9.26585C9.26585 24.2176 9.26585 24.2176 9.26585 24.2176H9.26585C9.26585 24.2176 9.26585 24.2176 9.26585 24.2176C9.26585 24.2176 9.26585 24.2176 9.26585 24.2176H9.26585C9.26585 24.2176 9.26585 24.2176 9.26585 24.2176H9.26585C9.26586 24.2176 9.26586 24.2176 9.26586 24.2176C9.26586 24.2176 9.26586 24.2176 9.26586 24.2176C9.26586 24.2176 9.26586 24.2176 9.26586 24.2176C9.26586 24.2176 9.26586 24.2176 9.26586 24.2176H9.26586C9.26586 24.2176 9.26586 24.2176 9.26586 24.2176H9.26586C9.26586 24.2176 9.26586 24.2176 9.26586 24.2176C9.26586 24.2176 9.26586 24.2176 9.26586 24.2176C9.26586 24.2176 9.26586 24.2176 9.26586 24.2176C9.26586 24.2176 9.26586 24.2176 9.26586 24.2176H9.26586C9.26586 24.2176 9.26586 24.2176 9.26586 24.2176H9.26586C9.26586 24.2176 9.26586 24.2176 9.26586 24.2176H9.26586C9.26586 24.2176 9.26586 24.2176 9.26586 24.2176H9.26586C9.26586 24.2176 9.26586 24.2176 9.26586 24.2176H9.26586C9.26586 24.2176 9.26586 24.2176 9.26586 24.2176H9.26587C9.26587 24.2176 9.26587 24.2176 9.26587 24.2176H9.26587C9.26587 24.2176 9.26587 24.2176 9.26587 24.2176H9.26587C9.26587 24.2176 9.26587 24.2176 9.26587 24.2176H9.26587C9.26587 24.2176 9.26587 24.2176 9.26587 24.2176C9.26587 24.2176 9.26587 24.2176 9.26587 24.2176V23.8176C9.26587 23.8176 9.26587 23.8176 9.26587 23.8176C9.26587 23.8176 9.26587 23.8176 9.26587 23.8176H9.26587C9.26587 23.8176 9.26587 23.8176 9.26587 23.8176H9.26587C9.26587 23.8176 9.26587 23.8176 9.26587 23.8176H9.26587C9.26587 23.8176 9.26587 23.8176 9.26587 23.8176H9.26586C9.26586 23.8176 9.26586 23.8176 9.26586 23.8176H9.26586C9.26586 23.8176 9.26586 23.8176 9.26586 23.8176H9.26586C9.26586 23.8176 9.26586 23.8176 9.26586 23.8176H9.26586C9.26586 23.8176 9.26586 23.8176 9.26586 23.8176H9.26586C9.26586 23.8176 9.26586 23.8176 9.26586 23.8176H9.26586C9.26586 23.8176 9.26586 23.8176 9.26586 23.8176C9.26586 23.8176 9.26586 23.8176 9.26586 23.8176C9.26586 23.8176 9.26586 23.8176 9.26586 23.8176C9.26586 23.8176 9.26586 23.8176 9.26586 23.8176H9.26586C9.26586 23.8176 9.26586 23.8176 9.26586 23.8176H9.26586C9.26586 23.8176 9.26586 23.8176 9.26586 23.8176C9.26586 23.8176 9.26586 23.8176 9.26586 23.8176C9.26586 23.8176 9.26586 23.8176 9.26586 23.8176C9.26586 23.8176 9.26586 23.8176 9.26585 23.8176H9.26585C9.26585 23.8176 9.26585 23.8176 9.26585 23.8176H9.26585C9.26585 23.8176 9.26585 23.8176 9.26585 23.8176C9.26585 23.8176 9.26585 23.8176 9.26585 23.8176H9.26585C9.26585 23.8176 9.26585 23.8176 9.26585 23.8176H9.26585C9.26585 23.8176 9.26585 23.8176 9.26585 23.8176C9.26585 23.8176 9.26585 23.8176 9.26585 23.8176C9.26585 23.8176 9.26585 23.8176 9.26585 23.8176C9.26585 23.8176 9.26585 23.8176 9.26585 23.8176H9.26585C9.26585 23.8176 9.26585 23.8176 9.26585 23.8176H9.26585C9.26585 23.8176 9.26585 23.8176 9.26585 23.8176C9.26585 23.8176 9.26585 23.8176 9.26585 23.8176C9.26585 23.8176 9.26585 23.8176 9.26585 23.8176C9.26585 23.8176 9.26585 23.8176 9.26585 23.8176H9.26585C9.26585 23.8176 9.26585 23.8176 9.26584 23.8176H9.26584C9.26584 23.8176 9.26584 23.8176 9.26584 23.8176H9.26584C9.26584 23.8176 9.26584 23.8176 9.26584 23.8176H9.26584C9.26584 23.8176 9.26584 23.8176 9.26584 23.8176H9.26584C9.26584 23.8176 9.26584 23.8176 9.26584 23.8176H9.26584C9.26584 23.8176 9.26584 23.8176 9.26584 23.8176H9.26584C9.26584 23.8176 9.26584 23.8176 9.26584 23.8176H9.26584C9.26584 23.8176 9.26584 23.8176 9.26584 23.8176H9.26584C9.26584 23.8176 9.26584 23.8176 9.26584 23.8176C9.26584 23.8176 9.26584 23.8176 9.26584 23.8176V24.2176ZM2.86956 30.5751C2.86956 27.0547 5.74255 24.2176 9.26584 24.2176V23.8176C5.52473 23.8176 2.46956 26.8307 2.46956 30.5751H2.86956ZM9.26584 36.9325C5.74255 36.9325 2.86956 34.0954 2.86956 30.5751H2.46956C2.46956 34.3194 5.52473 37.3325 9.26584 37.3325V36.9325ZM9.26587 36.9325C9.26587 36.9325 9.26587 36.9325 9.26587 36.9325C9.26587 36.9325 9.26587 36.9325 9.26587 36.9325H9.26587C9.26587 36.9325 9.26587 36.9325 9.26587 36.9325H9.26587C9.26587 36.9325 9.26587 36.9325 9.26587 36.9325H9.26587C9.26587 36.9325 9.26587 36.9325 9.26587 36.9325H9.26586C9.26586 36.9325 9.26586 36.9325 9.26586 36.9325H9.26586C9.26586 36.9325 9.26586 36.9325 9.26586 36.9325H9.26586C9.26586 36.9325 9.26586 36.9325 9.26586 36.9325H9.26586C9.26586 36.9325 9.26586 36.9325 9.26586 36.9325H9.26586C9.26586 36.9325 9.26586 36.9325 9.26586 36.9325H9.26586C9.26586 36.9325 9.26586 36.9325 9.26586 36.9325C9.26586 36.9325 9.26586 36.9325 9.26586 36.9325C9.26586 36.9325 9.26586 36.9325 9.26586 36.9325C9.26586 36.9325 9.26586 36.9325 9.26586 36.9325H9.26586C9.26586 36.9325 9.26586 36.9325 9.26586 36.9325H9.26586C9.26586 36.9325 9.26586 36.9325 9.26586 36.9325C9.26586 36.9325 9.26586 36.9325 9.26586 36.9325C9.26586 36.9325 9.26586 36.9325 9.26586 36.9325C9.26586 36.9325 9.26586 36.9325 9.26585 36.9325H9.26585C9.26585 36.9325 9.26585 36.9325 9.26585 36.9325H9.26585C9.26585 36.9325 9.26585 36.9325 9.26585 36.9325C9.26585 36.9325 9.26585 36.9325 9.26585 36.9325H9.26585C9.26585 36.9325 9.26585 36.9325 9.26585 36.9325H9.26585C9.26585 36.9325 9.26585 36.9325 9.26585 36.9325C9.26585 36.9325 9.26585 36.9325 9.26585 36.9325C9.26585 36.9325 9.26585 36.9325 9.26585 36.9325C9.26585 36.9325 9.26585 36.9325 9.26585 36.9325H9.26585C9.26585 36.9325 9.26585 36.9325 9.26585 36.9325H9.26585C9.26585 36.9325 9.26585 36.9325 9.26585 36.9325C9.26585 36.9325 9.26585 36.9325 9.26585 36.9325C9.26585 36.9325 9.26585 36.9325 9.26585 36.9325C9.26585 36.9325 9.26585 36.9325 9.26585 36.9325H9.26585C9.26585 36.9325 9.26585 36.9325 9.26584 36.9325H9.26584C9.26584 36.9325 9.26584 36.9325 9.26584 36.9325H9.26584C9.26584 36.9325 9.26584 36.9325 9.26584 36.9325H9.26584C9.26584 36.9325 9.26584 36.9325 9.26584 36.9325H9.26584C9.26584 36.9325 9.26584 36.9325 9.26584 36.9325H9.26584C9.26584 36.9325 9.26584 36.9325 9.26584 36.9325H9.26584C9.26584 36.9325 9.26584 36.9325 9.26584 36.9325H9.26584C9.26584 36.9325 9.26584 36.9325 9.26584 36.9325H9.26584C9.26584 36.9325 9.26584 36.9325 9.26584 36.9325C9.26584 36.9325 9.26584 36.9325 9.26584 36.9325V37.3325C9.26584 37.3325 9.26584 37.3325 9.26584 37.3325C9.26584 37.3325 9.26584 37.3325 9.26584 37.3325H9.26584C9.26584 37.3325 9.26584 37.3325 9.26584 37.3325H9.26584C9.26584 37.3325 9.26584 37.3325 9.26584 37.3325H9.26584C9.26584 37.3325 9.26584 37.3325 9.26584 37.3325H9.26584C9.26584 37.3325 9.26584 37.3325 9.26584 37.3325H9.26584C9.26584 37.3325 9.26584 37.3325 9.26584 37.3325H9.26584C9.26584 37.3325 9.26584 37.3325 9.26584 37.3325H9.26584C9.26584 37.3325 9.26584 37.3325 9.26584 37.3325H9.26584C9.26585 37.3325 9.26585 37.3325 9.26585 37.3325H9.26585C9.26585 37.3325 9.26585 37.3325 9.26585 37.3325C9.26585 37.3325 9.26585 37.3325 9.26585 37.3325C9.26585 37.3325 9.26585 37.3325 9.26585 37.3325C9.26585 37.3325 9.26585 37.3325 9.26585 37.3325H9.26585C9.26585 37.3325 9.26585 37.3325 9.26585 37.3325H9.26585C9.26585 37.3325 9.26585 37.3325 9.26585 37.3325C9.26585 37.3325 9.26585 37.3325 9.26585 37.3325C9.26585 37.3325 9.26585 37.3325 9.26585 37.3325C9.26585 37.3325 9.26585 37.3325 9.26585 37.3325H9.26585C9.26585 37.3325 9.26585 37.3325 9.26585 37.3325H9.26585C9.26585 37.3325 9.26585 37.3325 9.26585 37.3325C9.26585 37.3325 9.26585 37.3325 9.26585 37.3325H9.26585C9.26585 37.3325 9.26585 37.3325 9.26585 37.3325H9.26585C9.26586 37.3325 9.26586 37.3325 9.26586 37.3325C9.26586 37.3325 9.26586 37.3325 9.26586 37.3325C9.26586 37.3325 9.26586 37.3325 9.26586 37.3325C9.26586 37.3325 9.26586 37.3325 9.26586 37.3325H9.26586C9.26586 37.3325 9.26586 37.3325 9.26586 37.3325H9.26586C9.26586 37.3325 9.26586 37.3325 9.26586 37.3325C9.26586 37.3325 9.26586 37.3325 9.26586 37.3325C9.26586 37.3325 9.26586 37.3325 9.26586 37.3325C9.26586 37.3325 9.26586 37.3325 9.26586 37.3325H9.26586C9.26586 37.3325 9.26586 37.3325 9.26586 37.3325H9.26586C9.26586 37.3325 9.26586 37.3325 9.26586 37.3325H9.26586C9.26586 37.3325 9.26586 37.3325 9.26586 37.3325H9.26586C9.26586 37.3325 9.26586 37.3325 9.26586 37.3325H9.26586C9.26586 37.3325 9.26586 37.3325 9.26586 37.3325H9.26587C9.26587 37.3325 9.26587 37.3325 9.26587 37.3325H9.26587C9.26587 37.3325 9.26587 37.3325 9.26587 37.3325H9.26587C9.26587 37.3325 9.26587 37.3325 9.26587 37.3325H9.26587C9.26587 37.3325 9.26587 37.3325 9.26587 37.3325C9.26587 37.3325 9.26587 37.3325 9.26587 37.3325V36.9325ZM9.46587 37.1325V34.1325H9.06587V37.1325H9.46587ZM9.26584 34.3325C9.26584 34.3325 9.26584 34.3325 9.26584 34.3325C9.26584 34.3325 9.26584 34.3325 9.26584 34.3325H9.26584C9.26584 34.3325 9.26584 34.3325 9.26584 34.3325H9.26584C9.26584 34.3325 9.26584 34.3325 9.26584 34.3325H9.26584C9.26584 34.3325 9.26584 34.3325 9.26584 34.3325H9.26584C9.26584 34.3325 9.26584 34.3325 9.26584 34.3325H9.26584C9.26584 34.3325 9.26584 34.3325 9.26584 34.3325H9.26584C9.26584 34.3325 9.26584 34.3325 9.26584 34.3325H9.26584C9.26584 34.3325 9.26584 34.3325 9.26584 34.3325H9.26584C9.26585 34.3325 9.26585 34.3325 9.26585 34.3325H9.26585C9.26585 34.3325 9.26585 34.3325 9.26585 34.3325C9.26585 34.3325 9.26585 34.3325 9.26585 34.3325C9.26585 34.3325 9.26585 34.3325 9.26585 34.3325C9.26585 34.3325 9.26585 34.3325 9.26585 34.3325H9.26585C9.26585 34.3325 9.26585 34.3325 9.26585 34.3325H9.26585C9.26585 34.3325 9.26585 34.3325 9.26585 34.3325C9.26585 34.3325 9.26585 34.3325 9.26585 34.3325C9.26585 34.3325 9.26585 34.3325 9.26585 34.3325C9.26585 34.3325 9.26585 34.3325 9.26585 34.3325H9.26585C9.26585 34.3325 9.26585 34.3325 9.26585 34.3325H9.26585C9.26585 34.3325 9.26585 34.3325 9.26585 34.3325C9.26585 34.3325 9.26585 34.3325 9.26585 34.3325H9.26585C9.26585 34.3325 9.26585 34.3325 9.26585 34.3325H9.26585C9.26586 34.3325 9.26586 34.3325 9.26586 34.3325C9.26586 34.3325 9.26586 34.3325 9.26586 34.3325C9.26586 34.3325 9.26586 34.3325 9.26586 34.3325C9.26586 34.3325 9.26586 34.3325 9.26586 34.3325H9.26586C9.26586 34.3325 9.26586 34.3325 9.26586 34.3325H9.26586C9.26586 34.3325 9.26586 34.3325 9.26586 34.3325C9.26586 34.3325 9.26586 34.3325 9.26586 34.3325C9.26586 34.3325 9.26586 34.3325 9.26586 34.3325C9.26586 34.3325 9.26586 34.3325 9.26586 34.3325H9.26586C9.26586 34.3325 9.26586 34.3325 9.26586 34.3325H9.26586C9.26586 34.3325 9.26586 34.3325 9.26586 34.3325H9.26586C9.26586 34.3325 9.26586 34.3325 9.26586 34.3325H9.26586C9.26586 34.3325 9.26586 34.3325 9.26586 34.3325H9.26586C9.26586 34.3325 9.26586 34.3325 9.26586 34.3325H9.26587C9.26587 34.3325 9.26587 34.3325 9.26587 34.3325H9.26587C9.26587 34.3325 9.26587 34.3325 9.26587 34.3325H9.26587C9.26587 34.3325 9.26587 34.3325 9.26587 34.3325H9.26587C9.26587 34.3325 9.26587 34.3325 9.26587 34.3325C9.26587 34.3325 9.26587 34.3325 9.26587 34.3325V33.9325C9.26587 33.9325 9.26587 33.9325 9.26587 33.9325C9.26587 33.9325 9.26587 33.9325 9.26587 33.9325H9.26587C9.26587 33.9325 9.26587 33.9325 9.26587 33.9325H9.26587C9.26587 33.9325 9.26587 33.9325 9.26587 33.9325H9.26587C9.26587 33.9325 9.26587 33.9325 9.26587 33.9325H9.26586C9.26586 33.9325 9.26586 33.9325 9.26586 33.9325H9.26586C9.26586 33.9325 9.26586 33.9325 9.26586 33.9325H9.26586C9.26586 33.9325 9.26586 33.9325 9.26586 33.9325H9.26586C9.26586 33.9325 9.26586 33.9325 9.26586 33.9325H9.26586C9.26586 33.9325 9.26586 33.9325 9.26586 33.9325H9.26586C9.26586 33.9325 9.26586 33.9325 9.26586 33.9325C9.26586 33.9325 9.26586 33.9325 9.26586 33.9325C9.26586 33.9325 9.26586 33.9325 9.26586 33.9325C9.26586 33.9325 9.26586 33.9325 9.26586 33.9325H9.26586C9.26586 33.9325 9.26586 33.9325 9.26586 33.9325H9.26586C9.26586 33.9325 9.26586 33.9325 9.26586 33.9325C9.26586 33.9325 9.26586 33.9325 9.26586 33.9325C9.26586 33.9325 9.26586 33.9325 9.26586 33.9325C9.26586 33.9325 9.26586 33.9325 9.26585 33.9325H9.26585C9.26585 33.9325 9.26585 33.9325 9.26585 33.9325H9.26585C9.26585 33.9325 9.26585 33.9325 9.26585 33.9325C9.26585 33.9325 9.26585 33.9325 9.26585 33.9325H9.26585C9.26585 33.9325 9.26585 33.9325 9.26585 33.9325H9.26585C9.26585 33.9325 9.26585 33.9325 9.26585 33.9325C9.26585 33.9325 9.26585 33.9325 9.26585 33.9325C9.26585 33.9325 9.26585 33.9325 9.26585 33.9325C9.26585 33.9325 9.26585 33.9325 9.26585 33.9325H9.26585C9.26585 33.9325 9.26585 33.9325 9.26585 33.9325H9.26585C9.26585 33.9325 9.26585 33.9325 9.26585 33.9325C9.26585 33.9325 9.26585 33.9325 9.26585 33.9325C9.26585 33.9325 9.26585 33.9325 9.26585 33.9325C9.26585 33.9325 9.26585 33.9325 9.26585 33.9325H9.26585C9.26585 33.9325 9.26585 33.9325 9.26584 33.9325H9.26584C9.26584 33.9325 9.26584 33.9325 9.26584 33.9325H9.26584C9.26584 33.9325 9.26584 33.9325 9.26584 33.9325H9.26584C9.26584 33.9325 9.26584 33.9325 9.26584 33.9325H9.26584C9.26584 33.9325 9.26584 33.9325 9.26584 33.9325H9.26584C9.26584 33.9325 9.26584 33.9325 9.26584 33.9325H9.26584C9.26584 33.9325 9.26584 33.9325 9.26584 33.9325H9.26584C9.26584 33.9325 9.26584 33.9325 9.26584 33.9325H9.26584C9.26584 33.9325 9.26584 33.9325 9.26584 33.9325C9.26584 33.9325 9.26584 33.9325 9.26584 33.9325V34.3325ZM5.46956 30.5751C5.46956 32.6407 7.15964 34.3325 9.26584 34.3325V33.9325C7.37803 33.9325 5.86956 32.4173 5.86956 30.5751H5.46956ZM9.26584 26.8176C7.15964 26.8176 5.46956 28.5094 5.46956 30.5751H5.86956C5.86956 28.7328 7.37803 27.2176 9.26584 27.2176V26.8176ZM9.26587 26.8176C9.26587 26.8176 9.26587 26.8176 9.26587 26.8176C9.26587 26.8176 9.26587 26.8176 9.26587 26.8176H9.26587C9.26587 26.8176 9.26587 26.8176 9.26587 26.8176H9.26587C9.26587 26.8176 9.26587 26.8176 9.26587 26.8176H9.26587C9.26587 26.8176 9.26587 26.8176 9.26587 26.8176H9.26586C9.26586 26.8176 9.26586 26.8176 9.26586 26.8176H9.26586C9.26586 26.8176 9.26586 26.8176 9.26586 26.8176H9.26586C9.26586 26.8176 9.26586 26.8176 9.26586 26.8176H9.26586C9.26586 26.8176 9.26586 26.8176 9.26586 26.8176H9.26586C9.26586 26.8176 9.26586 26.8176 9.26586 26.8176H9.26586C9.26586 26.8176 9.26586 26.8176 9.26586 26.8176C9.26586 26.8176 9.26586 26.8176 9.26586 26.8176C9.26586 26.8176 9.26586 26.8176 9.26586 26.8176C9.26586 26.8176 9.26586 26.8176 9.26586 26.8176H9.26586C9.26586 26.8176 9.26586 26.8176 9.26586 26.8176H9.26586C9.26586 26.8176 9.26586 26.8176 9.26586 26.8176C9.26586 26.8176 9.26586 26.8176 9.26586 26.8176C9.26586 26.8176 9.26586 26.8176 9.26586 26.8176C9.26586 26.8176 9.26586 26.8176 9.26585 26.8176H9.26585C9.26585 26.8176 9.26585 26.8176 9.26585 26.8176H9.26585C9.26585 26.8176 9.26585 26.8176 9.26585 26.8176C9.26585 26.8176 9.26585 26.8176 9.26585 26.8176H9.26585C9.26585 26.8176 9.26585 26.8176 9.26585 26.8176H9.26585C9.26585 26.8176 9.26585 26.8176 9.26585 26.8176C9.26585 26.8176 9.26585 26.8176 9.26585 26.8176C9.26585 26.8176 9.26585 26.8176 9.26585 26.8176C9.26585 26.8176 9.26585 26.8176 9.26585 26.8176H9.26585C9.26585 26.8176 9.26585 26.8176 9.26585 26.8176H9.26585C9.26585 26.8176 9.26585 26.8176 9.26585 26.8176C9.26585 26.8176 9.26585 26.8176 9.26585 26.8176C9.26585 26.8176 9.26585 26.8176 9.26585 26.8176C9.26585 26.8176 9.26585 26.8176 9.26585 26.8176H9.26585C9.26585 26.8176 9.26585 26.8176 9.26584 26.8176H9.26584C9.26584 26.8176 9.26584 26.8176 9.26584 26.8176H9.26584C9.26584 26.8176 9.26584 26.8176 9.26584 26.8176H9.26584C9.26584 26.8176 9.26584 26.8176 9.26584 26.8176H9.26584C9.26584 26.8176 9.26584 26.8176 9.26584 26.8176H9.26584C9.26584 26.8176 9.26584 26.8176 9.26584 26.8176H9.26584C9.26584 26.8176 9.26584 26.8176 9.26584 26.8176H9.26584C9.26584 26.8176 9.26584 26.8176 9.26584 26.8176H9.26584C9.26584 26.8176 9.26584 26.8176 9.26584 26.8176C9.26584 26.8176 9.26584 26.8176 9.26584 26.8176V27.2176C9.26584 27.2176 9.26584 27.2176 9.26584 27.2176C9.26584 27.2176 9.26584 27.2176 9.26584 27.2176H9.26584C9.26584 27.2176 9.26584 27.2176 9.26584 27.2176H9.26584C9.26584 27.2176 9.26584 27.2176 9.26584 27.2176H9.26584C9.26584 27.2176 9.26584 27.2176 9.26584 27.2176H9.26584C9.26584 27.2176 9.26584 27.2176 9.26584 27.2176H9.26584C9.26584 27.2176 9.26584 27.2176 9.26584 27.2176H9.26584C9.26584 27.2176 9.26584 27.2176 9.26584 27.2176H9.26584C9.26584 27.2176 9.26584 27.2176 9.26584 27.2176H9.26584C9.26585 27.2176 9.26585 27.2176 9.26585 27.2176H9.26585C9.26585 27.2176 9.26585 27.2176 9.26585 27.2176C9.26585 27.2176 9.26585 27.2176 9.26585 27.2176C9.26585 27.2176 9.26585 27.2176 9.26585 27.2176C9.26585 27.2176 9.26585 27.2176 9.26585 27.2176H9.26585C9.26585 27.2176 9.26585 27.2176 9.26585 27.2176H9.26585C9.26585 27.2176 9.26585 27.2176 9.26585 27.2176C9.26585 27.2176 9.26585 27.2176 9.26585 27.2176C9.26585 27.2176 9.26585 27.2176 9.26585 27.2176C9.26585 27.2176 9.26585 27.2176 9.26585 27.2176H9.26585C9.26585 27.2176 9.26585 27.2176 9.26585 27.2176H9.26585C9.26585 27.2176 9.26585 27.2176 9.26585 27.2176C9.26585 27.2176 9.26585 27.2176 9.26585 27.2176H9.26585C9.26585 27.2176 9.26585 27.2176 9.26585 27.2176H9.26585C9.26586 27.2176 9.26586 27.2176 9.26586 27.2176C9.26586 27.2176 9.26586 27.2176 9.26586 27.2176C9.26586 27.2176 9.26586 27.2176 9.26586 27.2176C9.26586 27.2176 9.26586 27.2176 9.26586 27.2176H9.26586C9.26586 27.2176 9.26586 27.2176 9.26586 27.2176H9.26586C9.26586 27.2176 9.26586 27.2176 9.26586 27.2176C9.26586 27.2176 9.26586 27.2176 9.26586 27.2176C9.26586 27.2176 9.26586 27.2176 9.26586 27.2176C9.26586 27.2176 9.26586 27.2176 9.26586 27.2176H9.26586C9.26586 27.2176 9.26586 27.2176 9.26586 27.2176H9.26586C9.26586 27.2176 9.26586 27.2176 9.26586 27.2176H9.26586C9.26586 27.2176 9.26586 27.2176 9.26586 27.2176H9.26586C9.26586 27.2176 9.26586 27.2176 9.26586 27.2176H9.26586C9.26586 27.2176 9.26586 27.2176 9.26586 27.2176H9.26587C9.26587 27.2176 9.26587 27.2176 9.26587 27.2176H9.26587C9.26587 27.2176 9.26587 27.2176 9.26587 27.2176H9.26587C9.26587 27.2176 9.26587 27.2176 9.26587 27.2176H9.26587C9.26587 27.2176 9.26587 27.2176 9.26587 27.2176C9.26587 27.2176 9.26587 27.2176 9.26587 27.2176V26.8176ZM9.46587 27.0176V24.0176H9.06587V27.0176H9.46587Z" fill="black"/>
<defs>
<linearGradient id="paint0_linear_0_252" x1="30.7107" y1="21.563" x2="30.7107" y2="40.0001" gradientUnits="userSpaceOnUse">
<stop stop-color="#4614E8"/>
<stop offset="1" stop-color="#BCA7FF"/>
</linearGradient>
</defs>
</svg>
